<?xml version="1.0" standalone="no"?><!DOCTYPE svg PUBLIC "-//W3C//DTD SVG 1.1//EN" "http://www.w3.org/Graphics/SVG/1.1/DTD/svg11.dtd"><svg t="1524120802413" class="icon" style="" viewBox="0 0 1024 1024" version="1.1" xmlns="http://www.w3.org/2000/svg" p-id="15241" xmlns:xlink="http://www.w3.org/1999/xlink" width="175" height="175"><defs><style type="text/css"></style></defs><path d="M512 1024c282.76736 0 512-229.23264 512-512S794.76736 0 512 0 0 229.23264 0 512s229.23264 512 512 512z m256.2048-705.4336H260.608v-51.6096H768.2048v51.6096z m11.69408 455.68H245.30944v-52.18304h159.88736c-19.59936-42.5984-40.30464-79.40096-62.09536-110.3872l41.10336-26.4192h-72.00768V379.16672h406.20032v206.09024h-75.59168l41.10336 27.01312c-19.41504 42.5984-39.60832 79.19616-60.6208 109.7728h156.61056v52.224z m-118.49728-240.88576v-101.10976H368.90624v101.10976h292.49536z m-28.50816 51.89632h-238.1824a1153.41312 1153.41312 0 0 1 69.89824 136.8064h97.19808c29.7984-46.20288 53.49376-91.81184 71.08608-136.8064z" p-id="15242" fill="#39d61d"></path></svg>