<?xml version="1.0" standalone="no"?><!DOCTYPE svg PUBLIC "-//W3C//DTD SVG 1.1//EN" "http://www.w3.org/Graphics/SVG/1.1/DTD/svg11.dtd"><svg t="1524120768162" class="icon" style="" viewBox="0 0 1024 1024" version="1.1" xmlns="http://www.w3.org/2000/svg" p-id="14711" xmlns:xlink="http://www.w3.org/1999/xlink" width="175" height="175"><defs><style type="text/css"></style></defs><path d="M511.99838 511.99838m-511.99838 0a511.99838 511.99838 0 1 0 1023.996759 0 511.99838 511.99838 0 1 0-1023.996759 0Z" fill="#4A86C5" p-id="14712"></path><path d="M874.018047 149.911732c199.947849 199.965134 199.965134 524.149823 0 724.112797-199.947849 199.947849-524.156305 199.947849-724.104154 0L874.018047 149.911732z" fill="#3D80B2" p-id="14713"></path><path d="M999.611768 668.232146c1.875436-5.861818 3.582342-11.788456 5.254678-17.730217a603.713255 603.713255 0 0 1-5.254678 17.730217z" fill="#4A86C5" p-id="14714"></path><path d="M1004.907499 650.389576l-0.03241 0.114514zM1004.907499 650.389576L727.533091 373.015168l-63.099351 63.09935-43.867488-43.867488-36.614217 36.614217-214.413338-214.417659-13.298744-5.068863-82.277197 82.277197 99.320331 99.311688-97.224509 97.218027 94.945033 94.945034-103.814463 103.823106L597.363132 1016.775898c190.10181-31.934269 344.622189-168.514849 402.257279-348.535109a637.927 637.927 0 0 0 5.254678-17.730217 0.324096 0.324096 0 0 1 0.03241-0.120996z" fill="#377CA5" p-id="14715"></path><path d="M774.730126 497.939091v189.883585h-110.071679v-177.166054c0-44.498395-15.934725-74.879163-55.768297-74.879164-30.430463 0-48.523668 20.46991-56.494272 40.261379-2.90174 7.08258-3.647161 16.92862-3.647161 26.841639v184.935718H438.653271s1.471396-300.058975 0-331.13763h110.088964v46.929115c-0.2031 0.347863-0.509911 0.734618-0.710851 1.075999h0.710851v-1.075999c14.625377-22.524679 40.754005-54.716065 99.223102-54.716064 72.461407 0.006482 126.764789 47.335316 126.764789 149.047476zM323.44791 197.046109c-37.657806 0-62.308556 24.715569-62.308556 57.198641 0 31.795988 23.922614 57.246175 60.852284 57.246174h0.74326c38.385942 0 62.276146-25.450187 62.276147-57.246174-0.725975-32.485233-23.888043-57.198641-61.563135-57.198641z m-55.774779 490.774406h110.071679V356.685045h-110.071679v331.13547z" fill="#FFFFFF" p-id="14716"></path></svg>