<?xml version="1.0" standalone="no"?><!DOCTYPE svg PUBLIC "-//W3C//DTD SVG 1.1//EN" "http://www.w3.org/Graphics/SVG/1.1/DTD/svg11.dtd"><svg t="1553683093671" class="icon" style="" viewBox="0 0 1024 1024" version="1.1" xmlns="http://www.w3.org/2000/svg" p-id="1745" xmlns:xlink="http://www.w3.org/1999/xlink" width="64" height="64"><defs><style type="text/css"></style></defs><path d="M449.908 483.113c-94.141 4.5-170.281 55.22-170.281 118.71 0 63.37 76.14 111.413 170.281 106.913 94.263-4.5 170.282-64.342 170.282-127.711-0.852-62.64-76.992-102.412-170.282-97.912z m63.49 160.308c-28.947 38.07-85.991 56.193-141.333 25.42-26.272-14.473-25.42-42.57-25.42-42.57s-10.826-89.641 83.316-100.588c95.114-11.798 112.386 79.668 83.438 117.738z m0 0" fill="#EA5D5C" p-id="1746"></path><path d="M449.908 582.728c-6.325 4.5-7.298 12.65-3.649 18.122 2.676 5.474 10.825 6.325 16.299 1.825s8.149-12.65 4.5-18.123c-2.554-5.473-9.852-6.325-17.15-1.824z m-44.395 12.65c-18.123 1.824-29.92 17.27-29.92 32.596 0 14.474 14.473 25.42 31.745 23.596 17.15-1.824 31.745-15.447 31.745-30.772s-13.622-27.245-33.57-25.42z m0 0" fill="#EA5D5C" p-id="1747"></path><path d="M511.574 13.866C236.204 13.866 13.38 236.69 13.38 512.06s222.826 498.195 498.195 498.195c275.37 0 498.195-222.826 498.195-498.195 0-275.37-222.825-498.195-498.195-498.195z m192.054 609.608C664.706 706.79 536.995 747.536 442.732 740.36 353.09 733.062 237.056 703.263 225.38 592.7c0 0-6.325-49.868 41.719-114.088 0 0 68.842-96.94 148.51-125.036 80.64-27.123 89.64 18.975 89.64 47.071-4.5 23.596-11.798 37.097 18.123 28.097 0 0 78.816-37.098 111.413-4.5 26.272 26.271 4.5 63.368 4.5 63.368s-10.825 11.798 11.799 16.299c20.798 3.649 91.465 36.245 52.544 119.562zM625.663 393.35c-8.15 0-15.447-7.298-15.447-15.447 0-9 7.298-15.447 15.447-15.447 0 0 96.939-18.122 85.14 86.966v1.824c-0.85 7.298-7.297 13.623-15.446 13.623-9 0-15.447-7.298-15.447-15.447 0.121-1.703 15.568-71.397-54.247-56.072zM789.62 493.938c-2.676 18.123-11.798 10.825-21.772 10.825-12.65 0-22.623-16.298-22.623-28.948 0-10.825 4.5-21.772 4.5-21.772 0.852-4.5 11.798-33.57-7.298-76.14-34.42-58.868-103.263-58.868-111.412-56.193-8.15 3.65-20.8 5.474-20.8 5.474-12.649 0-22.622-9.974-22.622-22.623 0-10.825 7.298-18.975 16.298-21.772 0 0 0 0.851 0.852 0.851s1.824 0.852 1.824 0.852c9.974-1.825 44.395-4.5 76.992 3.649 60.814 14.717 142.306 81.735 106.06 205.797z m0 0" fill="#EA5D5C" p-id="1748"></path></svg>